<svg xmlns="http://www.w3.org/2000/svg" class="hidden">

    <defs>

        <!-- Facebook -->
        <symbol id="icon-facebook" viewBox="0 0 24 24">
            <path
                fill="currentColor"
                d="M22.675 0h-21.35C.592 0 0 .592 0 1.325v21.351C0 23.408.592 24 1.325 24h11.495v-9.294h-3.128v-3.622h3.128v-2.672c0-3.1 1.894-4.788 4.659-4.788 1.325 0 2.464.099 2.796.143v3.24h-1.918c-1.504 0-1.796.715-1.796 1.763v2.312h3.591l-.467 3.622h-3.124V24h6.116c.733 0 1.325-.592 1.325-1.324V1.325C24 .592 23.408 0 22.675 0z"
            />
        </symbol>

        <!-- X (Twitter) -->
        <symbol id="icon-x" viewBox="0 0 24 24">
            <path
                fill="currentColor"
                d="M18.244 2H21.5l-7.5 8.56L23 22h-6.828l-5.35-6.993L4.5 22H1.244l8.01-9.14L1 2h6.828l4.85 6.35L18.244 2z"
            />
        </symbol>

        <!-- Instagram -->
        <symbol id="icon-instagram" viewBox="0 0 24 24">
            <path
                fill="currentColor"
                d="M7 2C4.243 2 2 4.243 2 7v10c0 2.757 2.243 5 5 5h10c2.757 
           0 5-2.243 5-5V7c0-2.757-2.243-5-5-5H7zm10 2c1.654 0 
           3 1.346 3 3v10c0 1.654-1.346 3-3 
           3H7c-1.654 0-3-1.346-3-3V7c0-1.654 
           1.346-3 3-3h10zm-5 3a5 5 0 100 10 5 5 0 
           000-10zm0 2a3 3 0 110 6 3 3 0 
           010-6zm4.5-2.75a1.25 1.25 0 100 
           2.5 1.25 1.25 0 000-2.5z"
            />
        </symbol>

        <!-- Gmail -->
        <symbol id="icon-gmail" viewBox="0 0 24 24">
            <path
                fill="currentColor"
                d="M24 5.457v13.909c0 .904-.732 1.636-1.636 1.636h-3.819V11.73L12 
                16.64l-6.545-4.91v9.273H1.636A1.636 1.636 0 0 1 0 19.366V5.457c0-2.023 
                2.309-3.178 3.927-1.964L5.455 4.64 12 9.548l6.545-4.91 1.528-1.145C21.69 
                2.28 24 3.434 24 5.457z"
            />
        </symbol>


        <!-- Logo Github -->
        <symbol id="icon-github" viewBox="0 0 24 24">
            <path
                fill="currentColor"
                d="M12 .297c-6.63 0-12 5.373-12 12 0 5.303 
                3.438 9.8 8.205 11.385.6.113.82-.258.82-.577 
                0-.285-.01-1.04-.015-2.04-3.338.724-4.042-1.61-4.042-1.61C4.422 18.07 
                3.633 17.7 3.633 17.7c-1.087-.744.084-.729.084-.729 1.205.084 1.838 1.236 
                1.838 1.236 1.07 1.835 2.809 1.305 3.495.998.108-.776.417-1.305.76-1.605-2.665-.3-5.466-1.332-5.466-5.93 
                0-1.31.465-2.38 1.235-3.22-.135-.303-.54-1.523.105-3.176 0 0 1.005-.322 3.3 1.23.96-.267 1.98-.399 3-.405 
                1.02.006 2.04.138 3 .405 2.28-1.552 3.285-1.23 3.285-1.23.645 1.653.24 2.873.12 3.176.765.84 1.23 1.91 1.23 
                3.22 0 4.61-2.805 5.625-5.475 5.92.42.36.81 1.096.81 2.22 0 1.606-.015 2.896-.015 3.286 0 .315.21.69.825.57C20.565 
                22.092 24 17.592 24 12.297c0-6.627-5.373-12-12-12" />
        </symbol>

        Linkedin
        <symbol id="icon-linkedin" viewBox="0 0 24 24">
            <path
                fill="currentColor"
                d="M0 0v24h24V0H0zm3.873 3.6875c1.0359-.0008 1.8758.8391 
                1.875 1.875-.0003 1.035-.8399 1.8738-1.875 1.873C2.8387 
                7.4352 2.0003 6.5968 2 5.5625c-.0008-1.035.838-1.8747 1.873-1.875zm4.4903.5078h3.5312l6.7344 
                10.8125h.045V4.1953H22v16.1172h-3.5469l-6.7168-10.791h-.0468v10.791H8.3633V4.1953zm-6.123 
                4.7871s.013.0041 3.3886 0v11.2754H2.2402V8.9824z"/>
        </symbol>
        
    </defs>

</svg>