<svg xmlns="http://www.w3.org/2000/svg" class="hidden">

    <defs>

        <!-- Facebook -->
        <symbol id="icon-facebook" viewBox="0 0 24 24">
            <path
                stroke="currentColor"
                fill="currentColor"
                d="M22.675 0h-21.35C.592 0 0 .592 0 1.325v21.351C0 23.408.592 24 1.325 24h11.495v-9.294h-3.128v-3.622h3.128v-2.672c0-3.1 1.894-4.788 4.659-4.788 1.325 0 2.464.099 2.796.143v3.24h-1.918c-1.504 0-1.796.715-1.796 1.763v2.312h3.591l-.467 3.622h-3.124V24h6.116c.733 0 1.325-.592 1.325-1.324V1.325C24 .592 23.408 0 22.675 0z"
            />
        </symbol>

        <!-- X (Twitter) -->
        <symbol
            id="icon-x" viewBox="0 0 24 24">
            <path
                stroke="currentColor"
                fill="currentColor"
                d="M18.244 2H21.5l-7.5 8.56L23 22h-6.828l-5.35-6.993L4.5 22H1.244l8.01-9.14L1 2h6.828l4.85 6.35L18.244 2z"
            />
        </symbol>

        <!-- Instagram -->
        <symbol
            id="icon-instagram" viewBox="0 0 24 24">
            <path
                stroke="currentColor"
                fill="currentColor"
                d="M7 2C4.243 2 2 4.243 2 7v10c0 2.757 2.243 5 5 5h10c2.757 
           0 5-2.243 5-5V7c0-2.757-2.243-5-5-5H7zm10 2c1.654 0 
           3 1.346 3 3v10c0 1.654-1.346 3-3 
           3H7c-1.654 0-3-1.346-3-3V7c0-1.654 
           1.346-3 3-3h10zm-5 3a5 5 0 100 10 5 5 0 
           000-10zm0 2a3 3 0 110 6 3 3 0 
           010-6zm4.5-2.75a1.25 1.25 0 100 
           2.5 1.25 1.25 0 000-2.5z"
            />
        </symbol>

        <!-- Gmail -->
        <symbol
            id="icon-gmail" viewBox="0 0 24 24">
            <path
                stroke="currentColor"
                fill="currentColor"
                d="M24 5.457v13.909c0 .904-.732 1.636-1.636 1.636h-3.819V11.73L12 
                16.64l-6.545-4.91v9.273H1.636A1.636 1.636 0 0 1 0 19.366V5.457c0-2.023 
                2.309-3.178 3.927-1.964L5.455 4.64 12 9.548l6.545-4.91 1.528-1.145C21.69 
                2.28 24 3.434 24 5.457z"
            />
        </symbol>


        <!-- Logo Github -->
        <symbol
            id="icon-github" viewBox="0 0 24 24">
            <path
                stroke="currentColor"
                fill="currentColor"
                d="M12 .297c-6.63 0-12 5.373-12 12 0 5.303 
                3.438 9.8 8.205 11.385.6.113.82-.258.82-.577 
                0-.285-.01-1.04-.015-2.04-3.338.724-4.042-1.61-4.042-1.61C4.422 18.07 
                3.633 17.7 3.633 17.7c-1.087-.744.084-.729.084-.729 1.205.084 1.838 1.236 
                1.838 1.236 1.07 1.835 2.809 1.305 3.495.998.108-.776.417-1.305.76-1.605-2.665-.3-5.466-1.332-5.466-5.93 
                0-1.31.465-2.38 1.235-3.22-.135-.303-.54-1.523.105-3.176 0 0 1.005-.322 3.3 1.23.96-.267 1.98-.399 3-.405 
                1.02.006 2.04.138 3 .405 2.28-1.552 3.285-1.23 3.285-1.23.645 1.653.24 2.873.12 3.176.765.84 1.23 1.91 1.23 
                3.22 0 4.61-2.805 5.625-5.475 5.92.42.36.81 1.096.81 2.22 0 1.606-.015 2.896-.015 3.286 0 .315.21.69.825.57C20.565 
                22.092 24 17.592 24 12.297c0-6.627-5.373-12-12-12" />
        </symbol>

        <!-- Linkedin -->

        <symbol id="icon-linkedin" viewBox="0 0 24 24">
            <path
                stroke="currentColor"
                fill="currentColor"
                d="M0 0v24h24V0H0zm3.873 3.6875c1.0359-.0008 1.8758.8391 
                1.875 1.875-.0003 1.035-.8399 1.8738-1.875 1.873C2.8387 
                7.4352 2.0003 6.5968 2 5.5625c-.0008-1.035.838-1.8747 1.873-1.875zm4.4903.5078h3.5312l6.7344 
                10.8125h.045V4.1953H22v16.1172h-3.5469l-6.7168-10.791h-.0468v10.791H8.3633V4.1953zm-6.123 
                4.7871s.013.0041 3.3886 0v11.2754H2.2402V8.9824z" />
        </symbol>

        <!-- JavaScript  -->
        <symbol id="icon-javascript" viewBox="0 0 24 24">

            <path
                stroke="currentColor"
                fill="currentColor"
                d="M0 0h24v24H0V0zm22.034 18.276c-.175-1.095-.888-2.015-3.003-2.873-.736-.345-1.554-.585-1.797-1.14-.091-.33-.105-.51-.046-.705.15-.646.915-.84 1.515-.66.39.12.75.42.976.9 1.034-.676 1.034-.676 1.755-1.125-.27-.42-.404-.601-.586-.78-.63-.705-1.469-1.065-2.834-1.034l-.705.089c-.676.165-1.32.525-1.71 1.005-1.14 1.291-.811 3.541.569 4.471 1.365 1.02 3.361 1.244 3.616 2.205.24 1.17-.87 1.545-1.966 1.41-.811-.18-1.26-.586-1.755-1.336l-1.83 1.051c.21.48.45.689.81 1.109 1.74 1.756 6.09 1.666 6.871-1.004.029-.09.24-.705.074-1.65l.046.067zm-8.983-7.245h-2.248c0 1.938-.009 3.864-.009 5.805 0 1.232.063 2.363-.138 2.711-.33.689-1.18.601-1.566.48-.396-.196-.597-.466-.83-.855-.063-.105-.11-.196-.127-.196l-1.825 1.125c.305.63.75 1.172 1.324 1.517.855.51 2.004.675 3.207.405.783-.226 1.458-.691 1.811-1.411.51-.93.402-2.07.397-3.346.012-2.054 0-4.109 0-6.179l.004-.056z" />
        </symbol>


        <!-- React -->
        <symbol id="icon-react" viewBox="0 0 24 24">
            <path
                stroke="currentColor"
                fill="currentColor"
                d="M14.23 12.004a2.236 2.236 0 0 1-2.235 2.236 2.236 2.236 0 0 1-2.236-2.236 2.236 2.236 0 0 1 2.235-2.236 2.236 2.236 0 0 1 2.236 2.236zm2.648-10.69c-1.346 0-3.107.96-4.888 2.622-1.78-1.653-3.542-2.602-4.887-2.602-.41 0-.783.093-1.106.278-1.375.793-1.683 3.264-.973 6.365C1.98 8.917 0 10.42 0 12.004c0 1.59 1.99 3.097 5.043 4.03-.704 3.113-.39 5.588.988 6.38.32.187.69.275 1.102.275 1.345 0 3.107-.96 4.888-2.624 1.78 1.654 3.542 2.603 4.887 2.603.41 0 .783-.09 1.106-.275 1.374-.792 1.683-3.263.973-6.365C22.02 15.096 24 13.59 24 12.004c0-1.59-1.99-3.097-5.043-4.032.704-3.11.39-5.587-.988-6.38-.318-.184-.688-.277-1.092-.278zm-.005 1.09v.006c.225 0 .406.044.558.127.666.382.955 1.835.73 3.704-.054.46-.142.945-.25 1.44-.96-.236-2.006-.417-3.107-.534-.66-.905-1.345-1.727-2.035-2.447 1.592-1.48 3.087-2.292 4.105-2.295zm-9.77.02c1.012 0 2.514.808 4.11 2.28-.686.72-1.37 1.537-2.02 2.442-1.107.117-2.154.298-3.113.538-.112-.49-.195-.964-.254-1.42-.23-1.868.054-3.32.714-3.707.19-.09.4-.127.563-.132zm4.882 3.05c.455.468.91.992 1.36 1.564-.44-.02-.89-.034-1.345-.034-.46 0-.915.01-1.36.034.44-.572.895-1.096 1.345-1.565zM12 8.1c.74 0 1.477.034 2.202.093.406.582.802 1.203 1.183 1.86.372.64.71 1.29 1.018 1.946-.308.655-.646 1.31-1.013 1.95-.38.66-.773 1.288-1.18 1.87-.728.063-1.466.098-2.21.098-.74 0-1.477-.035-2.202-.093-.406-.582-.802-1.204-1.183-1.86-.372-.64-.71-1.29-1.018-1.946.303-.657.646-1.313 1.013-1.954.38-.66.773-1.286 1.18-1.868.728-.064 1.466-.098 2.21-.098zm-3.635.254c-.24.377-.48.763-.704 1.16-.225.39-.435.782-.635 1.174-.265-.656-.49-1.31-.676-1.947.64-.15 1.315-.283 2.015-.386zm7.26 0c.695.103 1.365.23 2.006.387-.18.632-.405 1.282-.66 1.933-.2-.39-.41-.783-.64-1.174-.225-.392-.465-.774-.705-1.146zm3.063.675c.484.15.944.317 1.375.498 1.732.74 2.852 1.708 2.852 2.476-.005.768-1.125 1.74-2.857 2.475-.42.18-.88.342-1.355.493-.28-.958-.646-1.956-1.1-2.98.45-1.017.81-2.01 1.085-2.964zm-13.395.004c.278.96.645 1.957 1.1 2.98-.45 1.017-.812 2.01-1.086 2.964-.484-.15-.944-.318-1.37-.5-1.732-.737-2.852-1.706-2.852-2.474 0-.768 1.12-1.742 2.852-2.476.42-.18.88-.342 1.356-.494zm11.678 4.28c.265.657.49 1.312.676 1.948-.64.157-1.316.29-2.016.39.24-.375.48-.762.705-1.158.225-.39.435-.788.636-1.18zm-9.945.02c.2.392.41.783.64 1.175.23.39.465.772.705 1.143-.695-.102-1.365-.23-2.006-.386.18-.63.406-1.282.66-1.933zM17.92 16.32c.112.493.2.968.254 1.423.23 1.868-.054 3.32-.714 3.708-.147.09-.338.128-.563.128-1.012 0-2.514-.807-4.11-2.28.686-.72 1.37-1.536 2.02-2.44 1.107-.118 2.154-.3 3.113-.54zm-11.83.01c.96.234 2.006.415 3.107.532.66.905 1.345 1.727 2.035 2.446-1.595 1.483-3.092 2.295-4.11 2.295-.22-.005-.406-.05-.553-.132-.666-.38-.955-1.834-.73-3.703.054-.46.142-.944.25-1.438zm4.56.64c.44.02.89.034 1.345.034.46 0 .915-.01 1.36-.034-.44.572-.895 1.095-1.345 1.565-.455-.47-.91-.993-1.36-1.565z"
            />
        </symbol>

        <!-- Node.js -->
        <symbol id="icon-nodejs" viewBox="0 0 24 24">
            <path
                stroke="currentColor"
                fill="currentColor"
                d="M11.998,24c-0.321,0-0.641-0.084-0.922-0.247l-2.936-1.737c-0.438-0.245-0.224-0.332-0.08-0.383 c0.585-0.203,0.703-0.25,1.328-0.604c0.065-0.037,0.151-0.023,0.218,0.017l2.256,1.339c0.082,0.045,0.197,0.045,0.272,0l8.795-5.076 c0.082-0.047,0.134-0.141,0.134-0.238V6.921c0-0.099-0.053-0.192-0.137-0.242l-8.791-5.072c-0.081-0.047-0.189-0.047-0.271,0 L3.075,6.68C2.99,6.729,2.936,6.825,2.936,6.921v10.15c0,0.097,0.054,0.189,0.139,0.235l2.409,1.392 c1.307,0.654,2.108-0.116,2.108-0.89V7.787c0-0.142,0.114-0.253,0.256-0.253h1.115c0.139,0,0.255,0.112,0.255,0.253v10.021 c0,1.745-0.95,2.745-2.604,2.745c-0.508,0-0.909,0-2.026-0.551L2.28,18.675c-0.57-0.329-0.922-0.945-0.922-1.604V6.921 c0-0.659,0.353-1.275,0.922-1.603l8.795-5.082c0.557-0.315,1.296-0.315,1.848,0l8.794,5.082c0.57,0.329,0.924,0.944,0.924,1.603 v10.15c0,0.659-0.354,1.273-0.924,1.604l-8.794,5.078C12.643,23.916,12.324,24,11.998,24z M19.099,13.993 c0-1.9-1.284-2.406-3.987-2.763c-2.731-0.361-3.009-0.548-3.009-1.187c0-0.528,0.235-1.233,2.258-1.233 c1.807,0,2.473,0.389,2.747,1.607c0.024,0.115,0.129,0.199,0.247,0.199h1.141c0.071,0,0.138-0.031,0.186-0.081 c0.048-0.054,0.074-0.123,0.067-0.196c-0.177-2.098-1.571-3.076-4.388-3.076c-2.508,0-4.004,1.058-4.004,2.833 c0,1.925,1.488,2.457,3.895,2.695c2.88,0.282,3.103,0.703,3.103,1.269c0,0.983-0.789,1.402-2.642,1.402 c-2.327,0-2.839-0.584-3.011-1.742c-0.02-0.124-0.126-0.215-0.253-0.215h-1.137c-0.141,0-0.254,0.112-0.254,0.253 c0,1.482,0.806,3.248,4.655,3.248C17.501,17.007,19.099,15.91,19.099,13.993z"
            />
        </symbol>

        <!-- CSS -->
        <symbol id="icon-css" viewBox="0 0 24 24">
            <path
                stroke="currentColor"
                fill="currentColor"
                d="M0 0v20.16A3.84 3.84 0 0 0 3.84 24h16.32A3.84 3.84 0 0 0 24 20.16V3.84A3.84 3.84 0 0 0 20.16 0Zm14.256 13.08c1.56 0 2.28 1.08 2.304 2.64h-1.608c.024-.288-.048-.6-.144-.84-.096-.192-.288-.264-.552-.264-.456 0-.696.264-.696.84-.024.576.288.888.768 1.08.72.288 1.608.744 1.92 1.296q.432.648.432 1.656c0 1.608-.912 2.592-2.496 2.592-1.656 0-2.4-1.032-2.424-2.688h1.68c0 .792.264 1.176.792 1.176.264 0 .456-.072.552-.24.192-.312.24-1.176-.048-1.512-.312-.408-.912-.6-1.32-.816q-.828-.396-1.224-.936c-.24-.36-.36-.888-.36-1.536 0-1.44.936-2.472 2.424-2.448m5.4 0c1.584 0 2.304 1.08 2.328 2.64h-1.608c0-.288-.048-.6-.168-.84-.096-.192-.264-.264-.528-.264-.48 0-.72.264-.72.84s.288.888.792 1.08c.696.288 1.608.744 1.92 1.296.264.432.408.984.408 1.656.024 1.608-.888 2.592-2.472 2.592-1.68 0-2.424-1.056-2.448-2.688h1.68c0 .744.264 1.176.792 1.176.264 0 .456-.072.552-.24.216-.312.264-1.176-.048-1.512-.288-.408-.888-.6-1.32-.816-.552-.264-.96-.576-1.2-.936s-.36-.888-.36-1.536c-.024-1.44.912-2.472 2.4-2.448m-11.031.018c.711-.006 1.419.198 1.839.63.432.432.672 1.128.648 1.992H9.336c.024-.456-.096-.792-.432-.96-.312-.144-.768-.048-.888.24-.12.264-.192.576-.168.864v3.504c0 .744.264 1.128.768 1.128a.65.65 0 0 0 .552-.264c.168-.24.192-.552.168-.84h1.776c.096 1.632-.984 2.712-2.568 2.688-1.536 0-2.496-.864-2.472-2.472v-4.032c0-.816.24-1.44.696-1.848.432-.408 1.146-.624 1.857-.63"
            />
        </symbol>

        <!-- HTML -->
        <symbol id="icon-html" viewBox="0 0 24 24">
            <path
                stroke="currentColor"
                fill="currentColor"
                d="M1.5 0h21l-1.91 21.563L11.977 24l-8.564-2.438L1.5 0zm7.031 9.75l-.232-2.718 10.059.003.23-2.622L5.412 4.41l.698 8.01h9.126l-.326 3.426-2.91.804-2.955-.81-.188-2.11H6.248l.33 4.171L12 19.351l5.379-1.443.744-8.157H8.531z"
            />
        </symbol>

        <!-- TailwindCSS -->
         <symbol id="icon-tailwindcss" viewBox="0 0 24 24">
            <path
                stroke="currentColor"
                fill="currentColor"
                d="M12.001,4.8c-3.2,0-5.2,1.6-6,4.8c1.2-1.6,2.6-2.2,4.2-1.8c0.913,0.228,1.565,0.89,2.288,1.624 C13.666,10.618,15.027,12,18.001,12c3.2,0,5.2-1.6,6-4.8c-1.2,1.6-2.6,2.2-4.2,1.8c-0.913-0.228-1.565-0.89-2.288-1.624 C16.337,6.182,14.976,4.8,12.001,4.8z M6.001,12c-3.2,0-5.2,1.6-6,4.8c1.2-1.6,2.6-2.2,4.2-1.8c0.913,0.228,1.565,0.89,2.288,1.624 c1.177,1.194,2.538,2.576,5.512,2.576c3.2,0,5.2-1.6,6-4.8c-1.2,1.6-2.6,2.2-4.2,1.8c-0.913-0.228-1.565-0.89-2.288-1.624 C10.337,13.382,8.976,12,6.001,12z"
            />
        </symbol>


        <!-- Flask -->
        <symbol id="icon-flask" viewBox="0 0 24 24">
            <path
                stroke="currentColor"
                fill="currentColor"
                d="M10.773 2.878c-.013 1.434.322 4.624.445 5.734l-8.558 3.83c-.56-.959-.98-2.304-1.237-3.38l-.06.027c-.205.09-.406.053-.494-.088l-.011-.018-.82-1.506c-.058-.105-.05-.252.024-.392a.78.78 0 0 1 .358-.331l9.824-4.207c.146-.064.299-.063.4.004.106.062.127.128.13.327Zm.68 7c.523 1.97.675 2.412.832 2.818l-7.263 3.7a19.35 19.35 0 0 1-1.81-2.83l8.24-3.689Zm12.432 8.786h.003c.283.402-.047.657-.153.698l-.947.37c.037.125.035.319-.217.414l-.736.287c-.229.09-.398-.059-.42-.2l-.025-.125c-4.427 1.784-7.94 1.685-10.696.647-1.981-.745-3.576-1.983-4.846-3.379l6.948-3.54c.721 1.431 1.586 2.454 2.509 3.178 2.086 1.638 4.415 1.712 5.793 1.563l-.047-.233c-.015-.077.007-.135.086-.165l.734-.288a.302.302 0 0 1 .342.086l.748-.288a.306.306 0 0 1 .341.086l.583.89Z"
            />
        </symbol>

        <!-- Copy -->
        <symbol id="icon-copy" viewBox="0 0 24 24">
            <path
                stroke="currentColor"
                fill="currentColor"
                d="M 4 2 C 2.895 2 2 2.895 2 4 L 2 18 L 4 18 L 4 4 L 18 4 L 18 2 L 4 2 z M 8 6 C 6.895 6 6 6.895 6 8 L 6 20 C 6 21.105 6.895 22 8 22 L 20 22 C 21.105 22 22 21.105 22 20 L 22 8 C 22 6.895 21.105 6 20 6 L 8 6 z M 8 8 L 20 8 L 20 20 L 8 20 L 8 8 z"/>
        </symbol>

    </defs>

</svg>